<svg xmlns="http://www.w3.org/2000/svg" viewBox="0 0 102.25 53.93"><defs><style>.cls-1{fill:#19a974;}</style></defs><title>moneygreen</title><g id="Layer_2" data-name="Layer 2"><g id="Layer_1-2" data-name="Layer 1"><path class="cls-1" d="M16.64,53.93c-.43,0-.5-.21-.5-.72l.07-3.53a16,16,0,0,1-3.74-.28l-.15,3.89c0,.43-.14.64-.5.64H10.24c-.44,0-.51-.21-.51-.72L9.88,49a26.23,26.23,0,0,1-5.33-2.3A4.28,4.28,0,0,0,3,45.94c-.43,0-.72.36-1.29,1.37-.15.29-.58.36-1,.36s-.72-.29-.65-1.23C.3,43.64,1,35.79,1.16,34.13a.46.46,0,0,1,.51-.5l1.58.07c.29,0,.43.07.43.5a20.25,20.25,0,0,0,1.44,7A14.82,14.82,0,0,0,10,45.8l.5-15.92a14.74,14.74,0,0,1-6.62-3.31C1.38,24.34.16,21.67.16,17.28c0-5.4,2.23-8.06,4.75-10.08A13.38,13.38,0,0,1,11,4.68l.14-4c0-.51.15-.65.51-.65h1.58c.36,0,.5.22.5.65l-.07,3.74a20.76,20.76,0,0,1,3.67.15L17.44.72c0-.65.14-.72.5-.72h1.58c.36,0,.51.22.51.65L19.88,4.9a38,38,0,0,1,4.25,1.15,1.34,1.34,0,0,0,1.3-.22L26.22,5a1,1,0,0,1,.87-.29c.43,0,.64.29.64.86,0,3.89.15,10.16.22,11.6,0,.29-.14.5-.36.5l-1.51.22c-.22,0-.36,0-.43-.22-.58-1.94-1.23-4.75-2.53-6.48a9.8,9.8,0,0,0-3.16-3l-.58,14.69c7.27,2,10.87,5.32,10.87,13.53,0,6-3.88,11.74-11.52,13l-.07,3.81c0,.58-.22.72-.58.72ZM11,7.56C7.72,8.93,7.21,12.1,7.21,14.47c0,3.24,1.23,5,3.46,6Zm1.58,39.17a13.45,13.45,0,0,0,3.74.29l.44-15.55c-1.88-.51-2.88-.72-3.68-1ZM17.29,7.27a8.19,8.19,0,0,0-3.67-.36l-.43,14.48a16.42,16.42,0,0,0,3.67.86ZM18.8,46.66c2.45-.94,4.4-3.38,4.4-7.85a7.29,7.29,0,0,0-4-6.55Z"/><path class="cls-1" d="M52.64,53.93c-.43,0-.5-.21-.5-.72l.07-3.53a16,16,0,0,1-3.74-.28l-.15,3.89c0,.43-.14.64-.5.64H46.24c-.44,0-.51-.21-.51-.72L45.88,49a26.23,26.23,0,0,1-5.33-2.3A4.28,4.28,0,0,0,39,45.94c-.43,0-.72.36-1.29,1.37-.15.29-.58.36-1,.36s-.72-.29-.65-1.23c.29-2.8.94-10.65,1.15-12.31a.46.46,0,0,1,.51-.5l1.58.07c.29,0,.43.07.43.5a20.25,20.25,0,0,0,1.44,7A14.82,14.82,0,0,0,46,45.8l.5-15.92a14.74,14.74,0,0,1-6.62-3.31c-2.45-2.23-3.67-4.9-3.67-9.29,0-5.4,2.23-8.06,4.75-10.08A13.38,13.38,0,0,1,47,4.68l.14-4c0-.51.15-.65.51-.65h1.58c.36,0,.5.22.5.65l-.07,3.74a20.76,20.76,0,0,1,3.67.15L53.44.72c0-.65.14-.72.5-.72h1.58c.36,0,.51.22.51.65L55.88,4.9a38,38,0,0,1,4.25,1.15,1.34,1.34,0,0,0,1.3-.22L62.22,5a1,1,0,0,1,.87-.29c.43,0,.64.29.64.86,0,3.89.15,10.16.22,11.6,0,.29-.14.5-.36.5l-1.51.22c-.22,0-.36,0-.43-.22-.58-1.94-1.23-4.75-2.53-6.48a9.8,9.8,0,0,0-3.16-3l-.58,14.69c7.27,2,10.87,5.32,10.87,13.53,0,6-3.88,11.74-11.52,13l-.07,3.81c0,.58-.22.72-.58.72ZM47,7.56c-3.24,1.37-3.75,4.54-3.75,6.91,0,3.24,1.23,5,3.46,6Zm1.58,39.17a13.45,13.45,0,0,0,3.74.29l.44-15.55c-1.88-.51-2.88-.72-3.68-1ZM53.29,7.27a8.19,8.19,0,0,0-3.67-.36l-.43,14.48a16.42,16.42,0,0,0,3.67.86ZM54.8,46.66c2.45-.94,4.4-3.38,4.4-7.85a7.29,7.29,0,0,0-4-6.55Z"/><path class="cls-1" d="M88.64,53.93c-.43,0-.5-.21-.5-.72l.07-3.53a16,16,0,0,1-3.74-.28l-.15,3.89c0,.43-.14.64-.5.64H82.24c-.44,0-.51-.21-.51-.72L81.88,49a26.23,26.23,0,0,1-5.33-2.3A4.28,4.28,0,0,0,75,45.94c-.43,0-.72.36-1.29,1.37-.15.29-.58.36-1,.36s-.72-.29-.65-1.23c.29-2.8.94-10.65,1.15-12.31a.46.46,0,0,1,.51-.5l1.58.07c.29,0,.43.07.43.5a20.25,20.25,0,0,0,1.44,7A14.82,14.82,0,0,0,82,45.8l.5-15.92a14.74,14.74,0,0,1-6.62-3.31c-2.45-2.23-3.67-4.9-3.67-9.29,0-5.4,2.23-8.06,4.75-10.08A13.38,13.38,0,0,1,83,4.68l.14-4c0-.51.15-.65.51-.65h1.58c.36,0,.5.22.5.65l-.07,3.74a20.76,20.76,0,0,1,3.67.15L89.44.72c0-.65.14-.72.5-.72h1.58c.36,0,.51.22.51.65L91.88,4.9a38,38,0,0,1,4.25,1.15,1.34,1.34,0,0,0,1.3-.22L98.22,5a1,1,0,0,1,.87-.29c.43,0,.64.29.64.86,0,3.89.15,10.16.22,11.6,0,.29-.14.5-.36.5l-1.51.22c-.22,0-.36,0-.43-.22-.58-1.94-1.23-4.75-2.53-6.48a9.8,9.8,0,0,0-3.16-3l-.58,14.69c7.27,2,10.87,5.32,10.87,13.53,0,6-3.88,11.74-11.52,13l-.07,3.81c0,.58-.22.72-.58.72ZM83,7.56c-3.24,1.37-3.75,4.54-3.75,6.91,0,3.24,1.23,5,3.46,6Zm1.58,39.17a13.45,13.45,0,0,0,3.74.29l.44-15.55c-1.88-.51-2.88-.72-3.68-1ZM89.29,7.27a8.19,8.19,0,0,0-3.67-.36l-.43,14.48a16.42,16.42,0,0,0,3.67.86ZM90.8,46.66c2.45-.94,4.4-3.38,4.4-7.85a7.29,7.29,0,0,0-4-6.55Z"/></g></g></svg>